<svg id="events-travel-logo" xmlns="http://www.w3.org/2000/svg" width="270" height="30" viewBox="0 0 270 30">
  <path id="Path_2" data-name="Path 2" d="M8.5,87.811H27.4v6.543H17.262v4.478h9.527v6.2H17.262v5h10.6v6.543H8.5Zm34.726,0h9.22l-6.608,28.761H34.472L27.864,87.811h9.527l2.766,22.218h.154Zm9.527,0h18.9v6.543H61.515v4.478h9.527v6.2H61.515v5h10.6v6.543H52.756Zm34.11,0h8.3v28.761H85.791L80.875,98.833H80.72v17.739h-7.99V87.811h9.527l4.457,17.565h.153Zm8.912,0h20.9v6.716h-5.992v22.045h-8.912V94.527H95.779Z" transform="translate(-8.504 -87.192)" fill="#fff" fill-rule="evenodd"/>
  <path id="Path_3" data-name="Path 3" d="M91.9,95.115a2.143,2.143,0,0,0-2.152-2.4,2.06,2.06,0,0,0-2,2.227c0,5.657,13.214,2.744,13.214,13.029,0,6.683-3.38,9.429-11.524,9.429-6.76,0-10.449-2.229-10.449-8.4v-.859h8.451v1.373c0,1.37.616,2.568,2.3,2.568a2.287,2.287,0,0,0,2.152-2.568c0-1.886-.768-2.229-2-2.914-1.075-.516-2.766-1.2-4.3-1.886-4.764-2.229-6.3-3.773-6.3-8.058,0-3.942,1.23-6.17,3.227-7.372A12.694,12.694,0,0,1,89.745,87.4c8.912,0,10.449,4.114,10.449,8.914H91.9v-1.2h0Z" transform="translate(29.543 -87.401)" fill="#fff" fill-rule="evenodd"/>
  <path id="Path_4" data-name="Path 4" d="M92.581,88.018h24.737l-.614,2.413H105.949l-6.3,26.036H96.576l6.3-26.036H92.121ZM120.7,90.431h12.138c3.075,0,5.07,1.724,4.917,5.173-.156,4.482-6.146,5.864-9.372,6.033h-10.3L120.7,90.431Zm-9.065,26.036h3.072l2.919-12.588h11.066c3.226,0,4.3,1.9,4.3,4.655,0,1.726-.46,3.45-.46,5,0,.345.153,2.758.46,2.931h3.075a6.1,6.1,0,0,1-.463-2.417c0-1.894.463-3.965.463-5.862,0-2.586-1.077-4.655-4-5.173v-.171c4.61-.175,7.991-3.449,7.991-7.759,0-4.655-3.075-7.069-8.3-7.069H118.394Zm45.484-26.036h.153l2.612,15H147.435Zm-20.283,26.036h3.379l5.838-8.793h14.292l1.535,8.793H165.1l-5.687-28.451h-3.379Zm27.194-28.449H167.1l3.994,26.207h.153l16.134-26.207h3.227l-18.13,28.449h-3.536Zm27.5,0h21.2l-.614,2.413H193.994L191.533,100.6h16.9l-.458,2.412h-16.9l-2.612,11.21H206.9l-.614,2.242H184.773l6.76-28.449Zm24.43,0h2.923l-6.149,26.207H230.1l-.614,2.242H209.2Z" transform="translate(39.899 -87.088)" fill="#fff" fill-rule="evenodd"/>
</svg>
